<svg xmlns="http://www.w3.org/2000/svg" width="256" height="256" fill="none">
  <style>
    #flame { fill: #FF5D01; }
    #a { fill: #000014; }
  </style>
  <path id="a" fill-rule="evenodd" d="M163.008 18.929c1.944 2.413 2.935 5.67 4.917 12.181l43.309 142.27a180.277 180.277 0 00-51.778-17.53l-28.198-95.29a3.67 3.67 0 00-7.042.01l-27.857 95.232a180.225 180.225 0 00-52.01 17.557l43.52-142.281c1.99-6.502 2.983-9.752 4.927-12.165a15.999 15.999 0 016.484-4.805c2.85-1.257 6.157-1.257 12.77-1.257h27.381c6.613 0 9.92 0 12.768 1.257a16 16 0 016.483 4.805z"/>
  <path id="flame" fill-rule="evenodd" d="M168.19 180.151c-7.139 6.105-21.39 10.268-37.804 10.268-20.147 0-37.033-6.272-41.513-14.707-1.602 4.835-1.961 10.367-1.961 13.902 0 0-1.056 17.355 11.015 29.426 0-6.268 5.081-11.349 11.349-11.349 10.743 0 10.731 9.373 10.721 16.977v.679c0 11.542 7.054 21.436 17.086 25.606a23.27 23.27 0 01-2.339-10.2c0-11.008 6.463-15.107 13.974-19.87 5.976-3.79 12.616-8.001 17.294-16.871a31.268 31.268 0 001.74-6.916c.03-.211.059-.423.087-.634.094-.684.167-1.357.217-2.017.18-2.373-.095-4.541-.857-6.497z"/>
</svg>
